<?xml version="1.0" encoding="utf-8"?>
<!-- Generator: Adobe Illustrator 17.0.0, SVG Export Plug-In . SVG Version: 6.00 Build 0)  -->
<!DOCTYPE svg PUBLIC "-//W3C//DTD SVG 1.1//EN" "http://www.w3.org/Graphics/SVG/1.1/DTD/svg11.dtd">
<svg version="1.1" id="Layer_1" xmlns="http://www.w3.org/2000/svg" xmlns:xlink="http://www.w3.org/1999/xlink" x="0px" y="0px"
	 viewBox="0 0 576 576" enable-background="new 0 0 576 576" xml:space="preserve">
<g>
	<path fill="#100E0F" d="M140.375,278.65h-40.356c-1.041,0-1.886,0.845-1.886,1.887v19.73c0,1.041,0.845,1.889,1.886,1.889h15.743
		v24.514c0,0-3.535,1.205-13.308,1.205c-11.53,0-27.637-4.213-27.637-39.631c0-35.425,16.771-40.087,32.518-40.087
		c13.63,0,19.502,2.399,23.238,3.556c1.174,0.359,2.26-0.81,2.26-1.851l4.502-19.064c0-0.488-0.165-1.075-0.721-1.473
		c-1.518-1.082-10.775-6.262-34.16-6.262c-26.941,0-54.576,11.462-54.576,66.562c0,55.102,31.64,63.312,58.302,63.312
		c22.076,0,35.469-9.434,35.469-9.434c0.552-0.305,0.611-1.076,0.611-1.43v-61.537C142.26,279.496,141.416,278.65,140.375,278.65z"
		/>
	<path fill="#100E0F" d="M348.352,229.665c0-1.05-0.832-1.897-1.873-1.897h-22.723c-1.038,0-1.882,0.847-1.882,1.897
		c0,0.005,0.006,43.913,0.006,43.913h-35.419v-43.913c0-1.05-0.836-1.897-1.875-1.897h-22.722c-1.034,0-1.877,0.847-1.877,1.897
		v118.903c0,1.049,0.843,1.902,1.877,1.902h22.722c1.039,0,1.875-0.854,1.875-1.902v-50.859h35.419c0,0-0.062,50.855-0.062,50.859
		c0,1.049,0.843,1.902,1.882,1.902h22.776c1.041,0,1.873-0.854,1.875-1.902V229.665z"/>
	<g>
		<g>
			<path fill="#100E0F" d="M183.254,245.268c0-8.182-6.56-14.793-14.653-14.793c-8.085,0-14.649,6.612-14.649,14.793
				c0,8.174,6.564,14.804,14.649,14.804C176.694,260.071,183.254,253.441,183.254,245.268z"/>
			<path fill="#100E0F" d="M181.629,323.486c0-3.047,0-54.886,0-54.886c0-1.042-0.841-1.894-1.88-1.894h-22.651
				c-1.039,0-1.969,1.072-1.969,2.114c0,0,0,66.045,0,78.635c0,2.31,1.44,2.998,3.304,2.998c0,0,9.668,0,20.408,0
				c2.239,0,2.788-1.1,2.788-3.035C181.629,343.203,181.629,326.691,181.629,323.486z"/>
		</g>
	</g>
	<path fill="#100E0F" d="M434.71,266.885h-22.549c-1.034,0-1.876,0.853-1.876,1.901v58.302c0,0-5.729,4.191-13.859,4.191
		c-8.13,0-10.288-3.689-10.288-11.65c0-7.971,0-50.843,0-50.843c0-1.049-0.84-1.901-1.875-1.901h-22.885
		c-1.033,0-1.879,0.853-1.879,1.901c0,0,0,31.048,0,54.692c0,23.647,13.179,29.432,31.309,29.432
		c14.873,0,26.865-8.217,26.865-8.217s0.571,4.33,0.829,4.844c0.259,0.512,0.932,1.029,1.659,1.029l14.559-0.064
		c1.033,0,1.879-0.854,1.879-1.899l-0.007-79.817C436.592,267.737,435.749,266.885,434.71,266.885z"/>
	<path fill="#100E0F" d="M496.339,264.214c-12.807,0-21.518,5.714-21.518,5.714v-40.263c0-1.05-0.839-1.897-1.875-1.897h-22.787
		c-1.036,0-1.878,0.847-1.878,1.897v118.903c0,1.049,0.842,1.902,1.881,1.902c0.002,0,15.805,0,15.81,0
		c0.712,0,1.251-0.367,1.649-1.01c0.393-0.639,0.96-5.482,0.96-5.482s9.317,8.83,26.957,8.83c20.708,0,32.584-10.504,32.584-47.154
		C528.122,269.003,509.155,264.214,496.339,264.214z M487.445,331.207c-7.821-0.238-13.126-3.787-13.126-3.787v-37.654
		c0,0,5.233-3.207,11.654-3.781c8.12-0.727,15.944,1.726,15.944,21.096C501.918,327.506,498.387,331.537,487.445,331.207z"/>
	<path fill="#100E0F" d="M246.936,266.695h-17.045c0,0-0.025-22.513-0.025-22.518c0-0.852-0.439-1.278-1.425-1.278h-23.228
		c-0.903,0-1.388,0.398-1.388,1.265v23.27c0,0-11.641,2.81-12.428,3.037c-0.783,0.228-1.36,0.95-1.36,1.812v14.623
		c0,1.052,0.84,1.9,1.879,1.9h11.909c0,0,0,15.294,0,35.179c0,26.129,18.328,28.695,30.695,28.695
		c5.651,0,12.411-1.814,13.527-2.227c0.675-0.248,1.067-0.947,1.067-1.705l0.019-16.086c0-1.049-0.886-1.898-1.884-1.898
		c-0.993,0-3.534,0.404-6.15,0.404c-8.372,0-11.209-3.893-11.209-8.932c0-5.035-0.001-33.431-0.001-33.431h17.046
		c1.039,0,1.881-0.848,1.881-1.9V268.59C248.816,267.54,247.975,266.695,246.936,266.695z"/>
</g>
</svg>
