<?xml version="1.0" encoding="utf-8"?>
<!-- Generator: Adobe Illustrator 17.0.0, SVG Export Plug-In . SVG Version: 6.00 Build 0)  -->
<!DOCTYPE svg PUBLIC "-//W3C//DTD SVG 1.1//EN" "http://www.w3.org/Graphics/SVG/1.1/DTD/svg11.dtd">
<svg version="1.1" id="Layer_1" xmlns="http://www.w3.org/2000/svg" xmlns:xlink="http://www.w3.org/1999/xlink" x="0px" y="0px"
	viewBox="0 0 120 120" enable-background="new 0 0 120 120" xml:space="preserve">
<path stroke="#FFFFFF" stroke-miterlimit="10" d="M59.996,2.292C27.325,2.292,0.83,28.782,0.83,61.465
	c0,26.14,16.952,48.317,40.467,56.142c2.959,0.543,4.038-1.284,4.038-2.852c0-1.405-0.051-5.126-0.08-10.063
	c-16.459,3.576-19.932-7.932-19.932-7.932c-2.691-6.835-6.57-8.655-6.57-8.655c-5.372-3.671,0.406-3.597,0.406-3.597
	c5.938,0.418,9.063,6.098,9.063,6.098c5.278,9.042,13.848,6.431,17.22,4.916c0.538-3.824,2.066-6.431,3.757-7.91
	c-13.139-1.493-26.952-6.569-26.952-29.243c0-6.459,2.305-11.741,6.09-15.877c-0.608-1.497-2.639-7.513,0.58-15.659
	c0,0,4.968-1.591,16.271,6.066c4.72-1.312,9.781-1.969,14.813-1.992c5.025,0.023,10.087,0.679,14.813,1.992
	c11.296-7.657,16.255-6.066,16.255-6.066c3.228,8.146,1.197,14.162,0.589,15.659c3.792,4.136,6.082,9.418,6.082,15.877
	c0,22.731-13.834,27.732-27.016,29.197c2.125,1.827,4.017,5.438,4.017,10.957c0,7.91-0.073,14.292-0.073,16.232
	c0,1.582,1.066,3.423,4.069,2.845c23.492-7.84,40.43-30.003,40.43-56.135C119.17,28.782,92.675,2.292,59.996,2.292z"/>
</svg>
